<svg width="34" height="40" viewBox="0 0 34 40" fill="none" xmlns="http://www.w3.org/2000/svg">
<path d="M33.2057 6.2162C33.2057 4.55773 32.5459 2.90229 31.2385 1.67659C28.7326 -0.668873 24.7983 -0.541764 22.4498 1.96713L19.0845 5.5625C18.228 5.40815 17.3443 5.32341 16.4424 5.32341C8.43151 5.32341 1.93684 11.815 1.93684 19.829C1.93684 22.4952 2.65713 24.995 3.91611 27.1408L1.6796 29.5316C-0.665867 32.0375 -0.538758 35.9718 1.97013 38.3203C4.476 40.6658 8.41032 40.5356 10.7588 38.0298L14.3572 34.1832C15.0351 34.2801 15.7342 34.3315 16.4424 34.3315C24.4533 34.3315 30.948 27.8368 30.948 19.829C30.948 17.3352 30.3185 14.9897 29.2108 12.9409L31.526 10.4653C32.6488 9.26682 33.2057 7.73848 33.2057 6.2162ZM24.7529 23.848C24.6288 24.4412 24.2172 24.9285 23.6664 25.1827L16.8207 28.9294C16.3698 29.1775 15.819 29.1564 15.3832 28.8779L8.80376 24.6349C8.23479 24.2354 8.16518 23.4153 8.66757 22.9341C8.87942 22.7252 9.15785 22.6223 9.4393 22.6223C9.64812 22.6223 9.85392 22.6798 10.0385 22.7979L15.4618 26.2903C15.8523 26.5415 16.3425 26.5809 16.7693 26.3993L22.7131 23.8662C22.931 23.7754 23.0793 23.5696 23.0914 23.3335L23.164 22.0625C23.1883 21.6085 22.7282 21.2816 22.3076 21.4632L16.7662 24.1204C16.3395 24.3262 15.8401 24.302 15.4316 24.0599L8.87942 20.1195C8.27111 19.714 8.19242 18.8484 8.71599 18.34C8.93692 18.1281 9.22745 18.0131 9.51496 18.0131C9.74194 18.0131 9.96892 18.0797 10.1687 18.2189L15.4528 21.666C15.8432 21.9202 16.3335 21.9656 16.7662 21.784L22.471 19.369C22.8614 19.1934 23.1126 18.803 23.1126 18.3733V17.1143C23.1126 16.5907 22.5678 16.2487 22.0957 16.4757L16.7965 19.2025C16.3516 19.4295 15.8159 19.4053 15.3953 19.1359L9.95984 15.6495C9.00653 15.0382 9.13363 13.6006 10.1838 13.1709L15.4497 11.007C15.8462 10.8466 16.2911 10.8708 16.6664 11.0796L23.6785 14.9686C24.0871 15.1955 24.3988 15.5708 24.5501 16.0187C24.9466 17.1899 24.9769 18.3218 24.5441 19.4022C24.3867 19.7987 24.3746 20.2406 24.5138 20.6431C24.883 21.7174 24.9587 22.7888 24.7408 23.8541L24.7529 23.848Z" fill="#8B6EE1"/>
</svg>
